<svg width="400" height="125" viewBox="0 0 400 125" fill="none" xmlns="http://www.w3.org/2000/svg">
<path d="M417.499 101.761L134.49 101.761L64.7167 101.761" stroke="white" stroke-width="32" stroke-linecap="square"/>
<path d="M415.499 61.4551L134.491 61.4549L64.7172 61.4549" stroke="white" stroke-width="32" stroke-linecap="square"/>
<path d="M420.999 21.8555L134.49 21.8554L64.7169 21.8554" stroke="white" stroke-width="32" stroke-linecap="square"/>
<path d="M241.957 21.832L35.7214 21.8318C30.2485 21.8318 24.8499 23.0993 19.9489 25.5351L-17.2002 43.9976" stroke="url(#paint0_linear_2448:53249)" stroke-width="32" stroke-linecap="square"/>
<path d="M233.866 101.761L48.2127 101.761C35.4046 101.761 23.4131 95.4709 16.132 84.9337L-26.8967 22.6624" stroke="url(#paint1_linear_2448:53249)" stroke-width="32" stroke-linecap="square"/>
<path d="M279.565 62.0352L43.1692 62.0352C37.187 62.0352 31.3022 63.5494 26.0631 66.4369L-54.6349 110.912" stroke="url(#paint2_linear_2448:53249)" stroke-width="32" stroke-linecap="square"/>
<path d="M353.609 20.4273H354.462C354.422 19.33 353.41 18.5097 352.004 18.5097C350.612 18.5097 349.518 19.3193 349.518 20.5409C349.518 21.521 350.229 22.1034 351.365 22.4301L352.26 22.6858C353.027 22.8989 353.709 23.1688 353.709 23.8932C353.709 24.6887 352.942 25.2142 351.933 25.2142C351.067 25.2142 350.3 24.8307 350.229 24.0068H349.319C349.405 25.2 350.371 26.0097 351.933 26.0097C353.609 26.0097 354.561 25.0864 354.561 23.9074C354.561 22.5438 353.268 22.1034 352.515 21.9046L351.777 21.7057C351.237 21.5637 350.371 21.2796 350.371 20.4983C350.371 19.8023 351.01 19.2909 351.976 19.2909C352.856 19.2909 353.524 19.71 353.609 20.4273ZM358.267 20.4273H357.103V19.1205H356.265V20.4273H355.441V21.1375H356.265V24.5466C356.265 25.4983 357.032 25.9529 357.742 25.9529C358.054 25.9529 358.253 25.896 358.367 25.8534L358.196 25.1006C358.125 25.1148 358.012 25.1432 357.827 25.1432C357.458 25.1432 357.103 25.0296 357.103 24.3193V21.1375H358.267V20.4273ZM361.756 25.9955C362.864 25.9955 363.674 25.4415 363.93 24.6176L363.12 24.3904C362.907 24.9585 362.413 25.2426 361.756 25.2426C360.773 25.2426 360.095 24.607 360.055 23.4387H364.015V23.0835C364.015 21.0523 362.808 20.3563 361.671 20.3563C360.194 20.3563 359.214 21.521 359.214 23.1972C359.214 24.8733 360.18 25.9955 361.756 25.9955ZM360.055 22.7142C360.112 21.8655 360.712 21.1091 361.671 21.1091C362.58 21.1091 363.163 21.7909 363.163 22.7142H360.055ZM365.29 27.9273H366.128V25.0438H366.199C366.384 25.3421 366.739 25.9955 367.79 25.9955C369.153 25.9955 370.105 24.9017 370.105 23.1688C370.105 21.45 369.153 20.3563 367.776 20.3563C366.71 20.3563 366.384 21.0097 366.199 21.2938H366.099V20.4273H365.29V27.9273ZM366.114 23.1546C366.114 21.933 366.653 21.1091 367.676 21.1091C368.742 21.1091 369.267 22.004 369.267 23.1546C369.267 24.3193 368.727 25.2426 367.676 25.2426C366.668 25.2426 366.114 24.3904 366.114 23.1546ZM379.082 18.6091V23.3534C379.082 24.4188 378.351 25.1858 377.136 25.1858C375.922 25.1858 375.19 24.4188 375.19 23.3534V18.6091H374.31V23.4244C374.31 24.9159 375.425 26.0097 377.136 26.0097C378.848 26.0097 379.963 24.9159 379.963 23.4244V18.6091H379.082ZM381.608 27.9273H382.446V25.0438H382.517C382.702 25.3421 383.057 25.9955 384.108 25.9955C385.472 25.9955 386.424 24.9017 386.424 23.1688C386.424 21.45 385.472 20.3563 384.094 20.3563C383.029 20.3563 382.702 21.0097 382.517 21.2938H382.418V20.4273H381.608V27.9273ZM382.432 23.1546C382.432 21.933 382.972 21.1091 383.995 21.1091C385.06 21.1091 385.585 22.004 385.585 23.1546C385.585 24.3193 385.046 25.2426 383.995 25.2426C382.986 25.2426 382.432 24.3904 382.432 23.1546Z" fill="#7C8295"/>
<path d="M358.701 106.438H359.582V103.597H361.172C361.236 103.597 361.297 103.597 361.357 103.593L362.891 106.438H363.914L362.27 103.433C363.197 103.117 363.63 102.361 363.63 101.395C363.63 100.109 362.863 99.1648 361.158 99.1648H358.701V106.438ZM359.582 102.801V99.946H361.13C362.309 99.946 362.763 100.521 362.763 101.395C362.763 102.268 362.309 102.801 361.144 102.801H359.582ZM367.212 106.551C368.32 106.551 369.13 105.997 369.385 105.173L368.576 104.946C368.363 105.514 367.869 105.798 367.212 105.798C366.228 105.798 365.55 105.163 365.511 103.994H369.471V103.639C369.471 101.608 368.263 100.912 367.127 100.912C365.65 100.912 364.669 102.077 364.669 103.753C364.669 105.429 365.635 106.551 367.212 106.551ZM365.511 103.27C365.568 102.421 366.168 101.665 367.127 101.665C368.036 101.665 368.618 102.347 368.618 103.27H365.511ZM373.032 106.551C374.14 106.551 374.95 105.997 375.206 105.173L374.396 104.946C374.183 105.514 373.689 105.798 373.032 105.798C372.049 105.798 371.37 105.163 371.331 103.994H375.291V103.639C375.291 101.608 374.083 100.912 372.947 100.912C371.47 100.912 370.49 102.077 370.49 103.753C370.49 105.429 371.456 106.551 373.032 106.551ZM371.331 103.27C371.388 102.421 371.988 101.665 372.947 101.665C373.856 101.665 374.439 102.347 374.439 103.27H371.331ZM376.566 100.983V106.835C376.566 107.389 376.338 107.702 375.827 107.702H375.671V108.483H375.841C376.892 108.483 377.404 107.844 377.404 106.835V100.983H376.566ZM376.978 100.074C377.304 100.074 377.574 99.8182 377.574 99.5057C377.574 99.1932 377.304 98.9375 376.978 98.9375C376.651 98.9375 376.381 99.1932 376.381 99.5057C376.381 99.8182 376.651 100.074 376.978 100.074ZM378.939 106.438H379.777V100.983H378.939V106.438ZM379.365 100.074C379.692 100.074 379.961 99.8182 379.961 99.5057C379.961 99.1932 379.692 98.9375 379.365 98.9375C379.038 98.9375 378.768 99.1932 378.768 99.5057C378.768 99.8182 379.038 100.074 379.365 100.074ZM383.513 108.597C384.82 108.597 385.871 108 385.871 106.594V100.983H385.062V101.849H384.977C384.792 101.565 384.451 100.912 383.386 100.912C382.008 100.912 381.056 102.006 381.056 103.682C381.056 105.386 382.05 106.352 383.371 106.352C384.437 106.352 384.778 105.727 384.962 105.429H385.033V106.537C385.033 107.446 384.394 107.858 383.513 107.858C382.523 107.858 382.175 107.336 381.951 107.034L381.283 107.503C381.624 108.075 382.295 108.597 383.513 108.597ZM383.485 105.599C382.434 105.599 381.894 104.804 381.894 103.668C381.894 102.56 382.42 101.665 383.485 101.665C384.508 101.665 385.048 102.489 385.048 103.668C385.048 104.875 384.494 105.599 383.485 105.599Z" fill="#7C8295"/>
<path d="M337.124 64.4824L337.856 62.4228H340.796L341.528 64.4824H342.451L339.78 57.2097H338.871L336.201 64.4824H337.124ZM338.133 61.6415L339.297 58.3603H339.354L340.519 61.6415H338.133ZM345.686 64.5961C346.893 64.5961 347.689 63.8574 347.831 62.8915H346.993C346.836 63.4881 346.339 63.8432 345.686 63.8432C344.692 63.8432 344.052 63.0194 344.052 61.7551C344.052 60.5194 344.706 59.7097 345.686 59.7097C346.425 59.7097 346.865 60.1642 346.993 60.6614H347.831C347.689 59.6387 346.822 58.9569 345.672 58.9569C344.194 58.9569 343.214 60.1216 343.214 61.7836C343.214 63.4171 344.152 64.5961 345.686 64.5961ZM351.272 64.5961C352.479 64.5961 353.275 63.8574 353.417 62.8915H352.579C352.422 63.4881 351.925 63.8432 351.272 63.8432C350.278 63.8432 349.638 63.0194 349.638 61.7551C349.638 60.5194 350.292 59.7097 351.272 59.7097C352.01 59.7097 352.451 60.1642 352.579 60.6614H353.417C353.275 59.6387 352.408 58.9569 351.258 58.9569C349.78 58.9569 348.8 60.1216 348.8 61.7836C348.8 63.4171 349.738 64.5961 351.272 64.5961ZM356.929 64.5961C358.037 64.5961 358.846 64.0421 359.102 63.2182L358.292 62.9909C358.079 63.5591 357.586 63.8432 356.929 63.8432C355.945 63.8432 355.267 63.2076 355.228 62.0392H359.187V61.6841C359.187 59.6529 357.98 58.9569 356.844 58.9569C355.366 58.9569 354.386 60.1216 354.386 61.7978C354.386 63.4739 355.352 64.5961 356.929 64.5961ZM355.228 61.3148C355.285 60.4661 355.885 59.7097 356.844 59.7097C357.753 59.7097 358.335 60.3915 358.335 61.3148H355.228ZM361.3 57.2097H360.462V64.4824H361.3V57.2097ZM365.122 64.5961C366.23 64.5961 367.04 64.0421 367.295 63.2182L366.486 62.9909C366.273 63.5591 365.779 63.8432 365.122 63.8432C364.138 63.8432 363.46 63.2076 363.421 62.0392H367.381V61.6841C367.381 59.6529 366.173 58.9569 365.037 58.9569C363.56 58.9569 362.58 60.1216 362.58 61.7978C362.58 63.4739 363.545 64.5961 365.122 64.5961ZM363.421 61.3148C363.478 60.4661 364.078 59.7097 365.037 59.7097C365.946 59.7097 366.528 60.3915 366.528 61.3148H363.421ZM368.656 64.4824H369.494V61.0307C369.494 60.2921 370.076 59.7523 370.871 59.7523C371.095 59.7523 371.326 59.7949 371.383 59.8091V58.9569C371.287 58.9498 371.067 58.9426 370.942 58.9426C370.289 58.9426 369.721 59.312 369.522 59.8517H369.465V59.0279H368.656V64.4824ZM373.981 64.6103C374.933 64.6103 375.43 64.0989 375.601 63.7438H375.643V64.4824H376.481V60.8887C376.481 59.1557 375.16 58.9569 374.464 58.9569C373.64 58.9569 372.703 59.2409 372.277 60.2353L373.072 60.5194C373.257 60.1216 373.694 59.6955 374.493 59.6955C375.263 59.6955 375.643 60.1039 375.643 60.8034V60.8319C375.643 61.2367 375.231 61.2012 374.237 61.329C373.225 61.4604 372.121 61.6841 372.121 62.9341C372.121 63.9995 372.944 64.6103 373.981 64.6103ZM374.109 63.8574C373.442 63.8574 372.959 63.5591 372.959 62.9767C372.959 62.3375 373.541 62.1387 374.194 62.0534C374.55 62.0108 375.501 61.9114 375.643 61.7409V62.508C375.643 63.1898 375.104 63.8574 374.109 63.8574ZM380.383 59.0279H379.218V57.7211H378.38V59.0279H377.556V59.7381H378.38V63.1472C378.38 64.0989 379.147 64.5534 379.858 64.5534C380.17 64.5534 380.369 64.4966 380.483 64.454L380.312 63.7012C380.241 63.7154 380.127 63.7438 379.943 63.7438C379.574 63.7438 379.218 63.6301 379.218 62.9199V59.7381H380.383V59.0279ZM383.872 64.5961C384.98 64.5961 385.79 64.0421 386.045 63.2182L385.236 62.9909C385.023 63.5591 384.529 63.8432 383.872 63.8432C382.888 63.8432 382.21 63.2076 382.171 62.0392H386.131V61.6841C386.131 59.6529 384.923 58.9569 383.787 58.9569C382.31 58.9569 381.33 60.1216 381.33 61.7978C381.33 63.4739 382.295 64.5961 383.872 64.5961ZM382.171 61.3148C382.228 60.4661 382.828 59.7097 383.787 59.7097C384.696 59.7097 385.278 60.3915 385.278 61.3148H382.171Z" fill="#7C8295"/>
<circle cx="241.108" cy="21.8552" r="10.8504" fill="white"/>
<path d="M235.994 23.9258H236.781V19.3328H236.079L234.626 20.481L234.995 21.041L235.994 20.3605V23.9258ZM239.649 23.9967C240.712 23.9967 241.385 23.4013 241.385 22.5578C241.385 22.0333 241.102 21.6222 240.627 21.4025C240.91 21.1969 241.073 20.8709 241.073 20.474C241.073 19.7793 240.52 19.2619 239.649 19.2619C238.777 19.2619 238.224 19.7793 238.224 20.474C238.224 20.8709 238.387 21.1969 238.67 21.4025C238.196 21.6222 237.912 22.0333 237.912 22.5578C237.912 23.4013 238.585 23.9967 239.649 23.9967ZM239.649 23.295C239.082 23.295 238.748 22.9618 238.748 22.5295C238.748 22.0971 239.067 21.7356 239.649 21.7356C240.23 21.7356 240.549 22.0971 240.549 22.5295C240.549 22.9618 240.216 23.295 239.649 23.295ZM239.649 21.1473C239.202 21.1473 238.968 20.8496 238.968 20.5307C238.968 20.1975 239.216 19.9211 239.649 19.9211C240.081 19.9211 240.329 20.1975 240.329 20.5307C240.329 20.8496 240.095 21.1473 239.649 21.1473ZM246.518 23.9967C247.17 23.9967 247.631 23.4154 247.631 22.5932C247.631 21.7569 247.17 21.1827 246.518 21.1827C245.866 21.1827 245.406 21.7569 245.406 22.5932C245.406 23.4154 245.866 23.9967 246.518 23.9967ZM243.152 22.0758C243.804 22.0758 244.264 21.4946 244.264 20.6724C244.264 19.836 243.804 19.2619 243.152 19.2619C242.499 19.2619 242.039 19.836 242.039 20.6724C242.039 21.4946 242.499 22.0758 243.152 22.0758ZM243.152 21.5371C242.804 21.5371 242.613 21.1827 242.613 20.6724C242.613 20.155 242.804 19.8006 243.152 19.8006C243.485 19.8006 243.697 20.155 243.697 20.6724C243.697 21.1827 243.485 21.5371 243.152 21.5371ZM246.518 23.458C246.171 23.458 245.98 23.1036 245.98 22.5932C245.98 22.0758 246.171 21.7214 246.518 21.7214C246.851 21.7214 247.064 22.0758 247.064 22.5932C247.064 23.1036 246.851 23.458 246.518 23.458ZM243.655 24.0037L246.469 19.3257L246.1 19.1131L243.286 23.7911L243.655 24.0037Z" fill="#1A1A1A"/>
<circle cx="277.99" cy="61.9675" r="10.8504" fill="white"/>
<path d="M271.119 64.0381H274.436V63.3293H272.345C273.224 62.6843 274.295 61.6849 274.295 60.7422C274.295 59.8987 273.65 59.3742 272.742 59.3742C272.388 59.3742 271.743 59.4734 271.19 60.0972L271.615 60.6075C272.048 60.2035 272.416 60.083 272.678 60.083C273.182 60.083 273.458 60.402 273.458 60.806C273.458 61.4155 272.82 62.0393 271.119 63.5207V64.0381ZM275.196 64.0381H278.513V63.3293H276.422C277.301 62.6843 278.371 61.6849 278.371 60.7422C278.371 59.8987 277.726 59.3742 276.819 59.3742C276.465 59.3742 275.82 59.4734 275.267 60.0972L275.692 60.6075C276.125 60.2035 276.493 60.083 276.755 60.083C277.259 60.083 277.535 60.402 277.535 60.806C277.535 61.4155 276.897 62.0393 275.196 63.5207V64.0381ZM283.753 64.109C284.405 64.109 284.865 63.5278 284.865 62.7056C284.865 61.8692 284.405 61.2951 283.753 61.2951C283.101 61.2951 282.64 61.8692 282.64 62.7056C282.64 63.5278 283.101 64.109 283.753 64.109ZM280.386 62.1881C281.038 62.1881 281.499 61.6069 281.499 60.7847C281.499 59.9483 281.038 59.3742 280.386 59.3742C279.734 59.3742 279.273 59.9483 279.273 60.7847C279.273 61.6069 279.734 62.1881 280.386 62.1881ZM280.386 61.6494C280.039 61.6494 279.847 61.2951 279.847 60.7847C279.847 60.2673 280.039 59.9129 280.386 59.9129C280.719 59.9129 280.932 60.2673 280.932 60.7847C280.932 61.2951 280.719 61.6494 280.386 61.6494ZM283.753 63.5703C283.405 63.5703 283.214 63.2159 283.214 62.7056C283.214 62.1881 283.405 61.8337 283.753 61.8337C284.086 61.8337 284.298 62.1881 284.298 62.7056C284.298 63.2159 284.086 63.5703 283.753 63.5703ZM280.889 64.1161L283.703 59.438L283.334 59.2254L280.521 63.9034L280.889 64.1161Z" fill="#1A1A1A"/>
<circle cx="233.866" cy="101.761" r="10.8504" fill="white"/>
<path d="M228.755 103.831H229.541V99.2381H228.84L227.387 100.386L227.755 100.946L228.755 100.266V103.831ZM232.409 103.902C233.472 103.902 234.145 103.307 234.145 102.463C234.145 101.939 233.862 101.527 233.387 101.308C233.67 101.102 233.833 100.776 233.833 100.379C233.833 99.6846 233.281 99.1672 232.409 99.1672C231.537 99.1672 230.984 99.6846 230.984 100.379C230.984 100.776 231.147 101.102 231.431 101.308C230.956 101.527 230.672 101.939 230.672 102.463C230.672 103.307 231.346 103.902 232.409 103.902ZM232.409 103.2C231.842 103.2 231.509 102.867 231.509 102.435C231.509 102.002 231.828 101.641 232.409 101.641C232.99 101.641 233.309 102.002 233.309 102.435C233.309 102.867 232.976 103.2 232.409 103.2ZM232.409 101.053C231.962 101.053 231.728 100.755 231.728 100.436C231.728 100.103 231.976 99.8264 232.409 99.8264C232.841 99.8264 233.089 100.103 233.089 100.436C233.089 100.755 232.855 101.053 232.409 101.053ZM239.279 103.902C239.931 103.902 240.391 103.321 240.391 102.499C240.391 101.662 239.931 101.088 239.279 101.088C238.626 101.088 238.166 101.662 238.166 102.499C238.166 103.321 238.626 103.902 239.279 103.902ZM235.912 101.981C236.564 101.981 237.025 101.4 237.025 100.578C237.025 99.7413 236.564 99.1672 235.912 99.1672C235.26 99.1672 234.799 99.7413 234.799 100.578C234.799 101.4 235.26 101.981 235.912 101.981ZM235.912 101.442C235.564 101.442 235.373 101.088 235.373 100.578C235.373 100.06 235.564 99.7059 235.912 99.7059C236.245 99.7059 236.458 100.06 236.458 100.578C236.458 101.088 236.245 101.442 235.912 101.442ZM239.279 103.363C238.931 103.363 238.74 103.009 238.74 102.499C238.74 101.981 238.931 101.627 239.279 101.627C239.612 101.627 239.824 101.981 239.824 102.499C239.824 103.009 239.612 103.363 239.279 103.363ZM236.415 103.909L239.229 99.231L238.86 99.0183L236.046 103.696L236.415 103.909Z" fill="#1A1A1A"/>
<defs>
<linearGradient id="paint0_linear_2448:53249" x1="201.3" y1="7.99756" x2="-28.7002" y2="46.9976" gradientUnits="userSpaceOnUse">
<stop offset="0.167782" stop-color="#22BFA2"/>
<stop offset="1" stop-color="#009277"/>
</linearGradient>
<linearGradient id="paint1_linear_2448:53249" x1="140.723" y1="19.861" x2="50.8536" y2="122.067" gradientUnits="userSpaceOnUse">
<stop stop-color="#27AAE1"/>
<stop offset="1" stop-color="#007EB3"/>
</linearGradient>
<linearGradient id="paint2_linear_2448:53249" x1="197.446" y1="-10.1724" x2="27.4849" y2="183.12" gradientUnits="userSpaceOnUse">
<stop stop-color="#4F4BFF"/>
<stop offset="1" stop-color="#0400B2"/>
</linearGradient>
</defs>
</svg>
