<svg width="400" height="125" viewBox="0 0 400 125" fill="none" xmlns="http://www.w3.org/2000/svg">
<path d="M417.499 101.761L134.49 101.761L64.7167 101.761" stroke="white" stroke-width="32" stroke-linecap="square"/>
<path d="M415.499 61.4551L134.491 61.4549L64.7172 61.4549" stroke="white" stroke-width="32" stroke-linecap="square"/>
<path d="M420.999 21.8555L134.49 21.8554L64.7169 21.8554" stroke="white" stroke-width="32" stroke-linecap="square"/>
<path d="M241.957 21.832L35.7214 21.8318C30.2485 21.8318 24.8499 23.0993 19.9489 25.5351L-17.2002 43.9976" stroke="url(#paint0_linear_2448_53249)" stroke-width="32" stroke-linecap="square"/>
<path d="M233.866 101.761L48.2127 101.761C35.4046 101.761 23.4131 95.4709 16.132 84.9337L-26.8967 22.6624" stroke="url(#paint1_linear_2448_53249)" stroke-width="32" stroke-linecap="square"/>
<path d="M279.565 62.0352L43.1692 62.0352C37.187 62.0352 31.3022 63.5494 26.0631 66.4369L-54.6349 110.912" stroke="url(#paint2_linear_2448_53249)" stroke-width="32" stroke-linecap="square"/>
<path d="M381.686 22.2455C381.686 19.9443 380.337 18.5097 378.476 18.5097C376.615 18.5097 375.266 19.9443 375.266 22.2455C375.266 24.5466 376.615 25.9813 378.476 25.9813C378.952 25.9813 379.392 25.8889 379.786 25.7114L380.422 26.5637H381.388L380.44 25.303C381.214 24.6673 381.686 23.6091 381.686 22.2455ZM378.192 23.6091L379.272 25.0225C379.023 25.1112 378.757 25.1574 378.476 25.1574C377.155 25.1574 376.118 24.1347 376.118 22.2455C376.118 20.3563 377.155 19.3335 378.476 19.3335C379.797 19.3335 380.834 20.3563 380.834 22.2455C380.834 23.3428 380.486 24.1453 379.932 24.6283L379.158 23.6091H378.192ZM385.596 18.6091H384.715L382.897 19.8165V20.7114L384.673 19.5324H384.715V25.8818H385.596V18.6091Z" fill="#7C8295"/>
<path d="M379.671 102.801C379.671 100.5 378.322 99.0653 376.461 99.0653C374.6 99.0653 373.251 100.5 373.251 102.801C373.251 105.102 374.6 106.537 376.461 106.537C376.937 106.537 377.377 106.445 377.771 106.267L378.407 107.119H379.373L378.425 105.859C379.199 105.223 379.671 104.165 379.671 102.801ZM376.177 104.165L377.256 105.578C377.008 105.667 376.741 105.713 376.461 105.713C375.14 105.713 374.103 104.69 374.103 102.801C374.103 100.912 375.14 99.8892 376.461 99.8892C377.782 99.8892 378.819 100.912 378.819 102.801C378.819 103.898 378.471 104.701 377.917 105.184L377.143 104.165H376.177ZM383.482 106.537C384.891 106.537 385.939 105.653 385.939 104.463C385.939 103.54 385.392 102.869 384.476 102.716V102.659C385.211 102.435 385.669 101.832 385.669 101.011C385.669 99.9815 384.856 99.0653 383.51 99.0653C382.253 99.0653 381.209 99.8395 381.166 100.983H382.018C382.05 100.259 382.739 99.8324 383.496 99.8324C384.298 99.8324 384.817 100.319 384.817 101.054C384.817 101.821 384.217 102.318 383.354 102.318H382.771V103.099H383.354C384.458 103.099 385.072 103.661 385.072 104.463C385.072 105.234 384.401 105.756 383.467 105.756C382.626 105.756 381.958 105.322 381.905 104.619H381.01C381.063 105.763 382.072 106.537 383.482 106.537Z" fill="#7C8295"/>
<path d="M379.984 60.8461C379.984 58.5449 378.634 57.1103 376.773 57.1103C374.913 57.1103 373.563 58.5449 373.563 60.8461C373.563 63.1472 374.913 64.5819 376.773 64.5819C377.249 64.5819 377.69 64.4895 378.084 64.312L378.719 65.1642H379.685L378.737 63.9036C379.511 63.2679 379.984 62.2097 379.984 60.8461ZM376.489 62.2097L377.569 63.623C377.32 63.7118 377.054 63.758 376.773 63.758C375.452 63.758 374.415 62.7353 374.415 60.8461C374.415 58.9569 375.452 57.9341 376.773 57.9341C378.094 57.9341 379.131 58.9569 379.131 60.8461C379.131 61.9434 378.783 62.7459 378.229 63.2289L377.455 62.2097H376.489ZM381.337 64.4824H385.925V63.7012H382.544V63.6444L384.178 61.8972C385.428 60.5584 385.797 59.9334 385.797 59.1273C385.797 58.0051 384.888 57.1103 383.609 57.1103C382.335 57.1103 381.365 57.9767 381.365 59.2551H382.203C382.203 58.4277 382.739 57.8773 383.581 57.8773C384.369 57.8773 384.973 58.3603 384.973 59.1273C384.973 59.7985 384.579 60.2956 383.737 61.2154L381.337 63.8432V64.4824Z" fill="#7C8295"/>
<circle cx="241.108" cy="21.8552" r="10.8504" fill="white"/>
<path d="M235.994 23.9258H236.781V19.3328H236.079L234.626 20.481L234.995 21.041L235.994 20.3605V23.9258ZM239.649 23.9967C240.712 23.9967 241.385 23.4013 241.385 22.5578C241.385 22.0333 241.102 21.6222 240.627 21.4025C240.91 21.1969 241.073 20.8709 241.073 20.474C241.073 19.7793 240.52 19.2619 239.649 19.2619C238.777 19.2619 238.224 19.7793 238.224 20.474C238.224 20.8709 238.387 21.1969 238.67 21.4025C238.196 21.6222 237.912 22.0333 237.912 22.5578C237.912 23.4013 238.585 23.9967 239.649 23.9967ZM239.649 23.295C239.082 23.295 238.748 22.9618 238.748 22.5295C238.748 22.0971 239.067 21.7356 239.649 21.7356C240.23 21.7356 240.549 22.0971 240.549 22.5295C240.549 22.9618 240.216 23.295 239.649 23.295ZM239.649 21.1473C239.202 21.1473 238.968 20.8496 238.968 20.5307C238.968 20.1975 239.216 19.9211 239.649 19.9211C240.081 19.9211 240.329 20.1975 240.329 20.5307C240.329 20.8496 240.095 21.1473 239.649 21.1473ZM246.518 23.9967C247.17 23.9967 247.631 23.4154 247.631 22.5932C247.631 21.7569 247.17 21.1827 246.518 21.1827C245.866 21.1827 245.406 21.7569 245.406 22.5932C245.406 23.4154 245.866 23.9967 246.518 23.9967ZM243.152 22.0758C243.804 22.0758 244.264 21.4946 244.264 20.6724C244.264 19.836 243.804 19.2619 243.152 19.2619C242.499 19.2619 242.039 19.836 242.039 20.6724C242.039 21.4946 242.499 22.0758 243.152 22.0758ZM243.152 21.5371C242.804 21.5371 242.613 21.1827 242.613 20.6724C242.613 20.155 242.804 19.8006 243.152 19.8006C243.485 19.8006 243.697 20.155 243.697 20.6724C243.697 21.1827 243.485 21.5371 243.152 21.5371ZM246.518 23.458C246.171 23.458 245.98 23.1036 245.98 22.5932C245.98 22.0758 246.171 21.7214 246.518 21.7214C246.851 21.7214 247.064 22.0758 247.064 22.5932C247.064 23.1036 246.851 23.458 246.518 23.458ZM243.655 24.0037L246.469 19.3257L246.1 19.1131L243.286 23.7911L243.655 24.0037Z" fill="#1A1A1A"/>
<circle cx="277.99" cy="61.9675" r="10.8504" fill="white"/>
<path d="M271.119 64.0381H274.436V63.3293H272.345C273.224 62.6843 274.295 61.6849 274.295 60.7422C274.295 59.8987 273.65 59.3742 272.742 59.3742C272.388 59.3742 271.743 59.4734 271.19 60.0972L271.615 60.6075C272.048 60.2035 272.416 60.083 272.678 60.083C273.182 60.083 273.458 60.402 273.458 60.806C273.458 61.4155 272.82 62.0393 271.119 63.5207V64.0381ZM275.196 64.0381H278.513V63.3293H276.422C277.301 62.6843 278.371 61.6849 278.371 60.7422C278.371 59.8987 277.726 59.3742 276.819 59.3742C276.465 59.3742 275.82 59.4734 275.267 60.0972L275.692 60.6075C276.125 60.2035 276.493 60.083 276.755 60.083C277.259 60.083 277.535 60.402 277.535 60.806C277.535 61.4155 276.897 62.0393 275.196 63.5207V64.0381ZM283.753 64.109C284.405 64.109 284.865 63.5278 284.865 62.7056C284.865 61.8692 284.405 61.2951 283.753 61.2951C283.101 61.2951 282.64 61.8692 282.64 62.7056C282.64 63.5278 283.101 64.109 283.753 64.109ZM280.386 62.1881C281.038 62.1881 281.499 61.6069 281.499 60.7847C281.499 59.9483 281.038 59.3742 280.386 59.3742C279.734 59.3742 279.273 59.9483 279.273 60.7847C279.273 61.6069 279.734 62.1881 280.386 62.1881ZM280.386 61.6494C280.039 61.6494 279.847 61.2951 279.847 60.7847C279.847 60.2673 280.039 59.9129 280.386 59.9129C280.719 59.9129 280.932 60.2673 280.932 60.7847C280.932 61.2951 280.719 61.6494 280.386 61.6494ZM283.753 63.5703C283.405 63.5703 283.214 63.2159 283.214 62.7056C283.214 62.1881 283.405 61.8337 283.753 61.8337C284.086 61.8337 284.298 62.1881 284.298 62.7056C284.298 63.2159 284.086 63.5703 283.753 63.5703ZM280.889 64.1161L283.703 59.438L283.334 59.2254L280.521 63.9034L280.889 64.1161Z" fill="#1A1A1A"/>
<circle cx="233.866" cy="101.761" r="10.8504" fill="white"/>
<path d="M228.755 103.831H229.541V99.2381H228.84L227.387 100.386L227.755 100.946L228.755 100.266V103.831ZM232.409 103.902C233.472 103.902 234.145 103.307 234.145 102.463C234.145 101.939 233.862 101.527 233.387 101.308C233.67 101.102 233.833 100.776 233.833 100.379C233.833 99.6846 233.281 99.1672 232.409 99.1672C231.537 99.1672 230.984 99.6846 230.984 100.379C230.984 100.776 231.147 101.102 231.431 101.308C230.956 101.527 230.672 101.939 230.672 102.463C230.672 103.307 231.346 103.902 232.409 103.902ZM232.409 103.2C231.842 103.2 231.509 102.867 231.509 102.435C231.509 102.002 231.828 101.641 232.409 101.641C232.99 101.641 233.309 102.002 233.309 102.435C233.309 102.867 232.976 103.2 232.409 103.2ZM232.409 101.053C231.962 101.053 231.728 100.755 231.728 100.436C231.728 100.103 231.976 99.8264 232.409 99.8264C232.841 99.8264 233.089 100.103 233.089 100.436C233.089 100.755 232.855 101.053 232.409 101.053ZM239.279 103.902C239.931 103.902 240.391 103.321 240.391 102.499C240.391 101.662 239.931 101.088 239.279 101.088C238.626 101.088 238.166 101.662 238.166 102.499C238.166 103.321 238.626 103.902 239.279 103.902ZM235.912 101.981C236.564 101.981 237.025 101.4 237.025 100.578C237.025 99.7413 236.564 99.1672 235.912 99.1672C235.26 99.1672 234.799 99.7413 234.799 100.578C234.799 101.4 235.26 101.981 235.912 101.981ZM235.912 101.442C235.564 101.442 235.373 101.088 235.373 100.578C235.373 100.06 235.564 99.7059 235.912 99.7059C236.245 99.7059 236.458 100.06 236.458 100.578C236.458 101.088 236.245 101.442 235.912 101.442ZM239.279 103.363C238.931 103.363 238.74 103.009 238.74 102.499C238.74 101.981 238.931 101.627 239.279 101.627C239.612 101.627 239.824 101.981 239.824 102.499C239.824 103.009 239.612 103.363 239.279 103.363ZM236.415 103.909L239.229 99.231L238.86 99.0183L236.046 103.696L236.415 103.909Z" fill="#1A1A1A"/>
<defs>
<linearGradient id="paint0_linear_2448_53249" x1="201.3" y1="7.99756" x2="-28.7002" y2="46.9976" gradientUnits="userSpaceOnUse">
<stop offset="0.167782" stop-color="#22BFA2"/>
<stop offset="1" stop-color="#009277"/>
</linearGradient>
<linearGradient id="paint1_linear_2448_53249" x1="140.723" y1="19.861" x2="50.8536" y2="122.067" gradientUnits="userSpaceOnUse">
<stop stop-color="#27AAE1"/>
<stop offset="1" stop-color="#007EB3"/>
</linearGradient>
<linearGradient id="paint2_linear_2448_53249" x1="197.446" y1="-10.1724" x2="27.4849" y2="183.12" gradientUnits="userSpaceOnUse">
<stop stop-color="#4F4BFF"/>
<stop offset="1" stop-color="#0400B2"/>
</linearGradient>
</defs>
</svg>
